<svg width="33" height="40" viewBox="0 0 33 40" fill="none" xmlns="http://www.w3.org/2000/svg">
<g clip-path="url(#clip0)">
<path d="M18.0239 3.48173C20.6567 0.0178636 24.3169 0.000976562 24.3169 0.000976562C24.3169 0.000976562 24.8614 3.2576 22.2458 6.39477C19.4531 9.74458 16.2787 9.19644 16.2787 9.19644C16.2787 9.19644 15.6827 6.56194 18.0239 3.48173ZM16.6136 11.4777C17.968 11.4777 20.4818 9.6192 23.7538 9.6192C29.3861 9.6192 31.6018 13.6197 31.6018 13.6197C31.6018 13.6197 27.2682 15.8314 27.2682 21.1979C27.2682 27.2518 32.6667 29.3382 32.6667 29.3382C32.6667 29.3382 28.893 39.9406 23.7958 39.9406C21.4547 39.9406 19.6346 38.3658 17.1678 38.3658C14.6541 38.3658 12.1595 39.9994 10.5348 39.9994C5.88027 39.9995 0 29.9419 0 21.8573C0 13.9032 4.97726 9.73065 9.64574 9.73065C12.6807 9.73065 15.0358 11.4777 16.6136 11.4777Z" fill="#999999"/>
</g>
<defs>
<clipPath id="clip0">
</clipPath>
</defs>
</svg>
